HIERARCHY
ROOT Hips
{
 OFFSET 0.000000 0.000000 0.000000
 CHANNELS 6 Xposition Yposition Zposition Yrotation Xrotation Zrotation
 JOINT Chest
 {
  OFFSET 0.000000 10.354800 0.006500
  CHANNELS 3 Yrotation Xrotation Zrotation
  JOINT Chest2
  {
   OFFSET 0.000000 10.435800 -0.013200
   CHANNELS 3 Yrotation Xrotation Zrotation
   JOINT Chest3
   {
    OFFSET 0.000000 10.393700 0.000000
    CHANNELS 3 Yrotation Xrotation Zrotation
    JOINT Chest4
    {
     OFFSET 0.000000 10.383100 0.000000
     CHANNELS 3 Yrotation Xrotation Zrotation
     JOINT Neck
     {
      OFFSET 0.000000 15.694000 0.000000
      CHANNELS 3 Yrotation Xrotation Zrotation
      JOINT Head
      {
       OFFSET 0.000000 9.711000 -0.028000
       CHANNELS 3 Yrotation Xrotation Zrotation
       End Site
       {
        OFFSET 0.000000 18.578700 -0.014800
       }
      }
     }
     JOINT RightCollar
     {
      OFFSET -3.157200 10.367500 0.000000
      CHANNELS 3 Yrotation Xrotation Zrotation
      JOINT RightShoulder
      {
       OFFSET -14.482500 0.000000 0.000000
       CHANNELS 3 Yrotation Xrotation Zrotation
       JOINT RightElbow
       {
        OFFSET 0.000000 -31.707800 0.000000
        CHANNELS 3 Yrotation Xrotation Zrotation
        JOINT RightWrist
        {
         OFFSET 0.000000 -25.659300 0.000000
         CHANNELS 3 Yrotation Xrotation Zrotation
         End Site
         {
          OFFSET 0.000000 -18.994300 0.000000
         }
        }
       }
      }
     }
     JOINT LeftCollar
     {
      OFFSET 3.157200 10.367500 0.000000
      CHANNELS 3 Yrotation Xrotation Zrotation
      JOINT LeftShoulder
      {
       OFFSET 14.482500 0.000000 0.000000
       CHANNELS 3 Yrotation Xrotation Zrotation
       JOINT LeftElbow
       {
        OFFSET 0.000000 -31.707800 0.000000
        CHANNELS 3 Yrotation Xrotation Zrotation
        JOINT LeftWrist
        {
         OFFSET 0.000000 -25.659300 0.000000
         CHANNELS 3 Yrotation Xrotation Zrotation
         End Site
         {
          OFFSET 0.000000 -18.994300 0.000000
         }
        }
       }
      }
     }
    }
   }
  }
 }
 JOINT RightHip
 {
  OFFSET -8.365600 -0.032100 -0.003200
  CHANNELS 3 Yrotation Xrotation Zrotation
  JOINT RightKnee
  {
   OFFSET 0.000000 -43.980000 0.003100
   CHANNELS 3 Yrotation Xrotation Zrotation
   JOINT RightAnkle
   {
    OFFSET 0.000000 -42.882800 0.005200
    CHANNELS 3 Yrotation Xrotation Zrotation
    JOINT RightToe
    {
     OFFSET 0.000000 -4.915500 10.826300
     CHANNELS 3 Yrotation Xrotation Zrotation
     End Site
     {
      OFFSET 0.000000 -1.517500 6.175900
     }
    }
   }
  }
 }
 JOINT LeftHip
 {
  OFFSET 8.365600 -0.032100 -0.003200
  CHANNELS 3 Yrotation Xrotation Zrotation
  JOINT LeftKnee
  {
   OFFSET 0.000000 -43.980000 0.003100
   CHANNELS 3 Yrotation Xrotation Zrotation
   JOINT LeftAnkle
   {
    OFFSET 0.000000 -42.882800 0.005200
    CHANNELS 3 Yrotation Xrotation Zrotation
    JOINT LeftToe
    {
     OFFSET 0.000000 -4.915500 10.826300
     CHANNELS 3 Yrotation Xrotation Zrotation
     End Site
     {
      OFFSET 0.000000 -1.517500 6.175900
     }
    }
   }
  }
 }
}
MOTION
Frames: 12
Frame Time: 0.008333
0.000000 91.618600 0.000000 0.000000 -5.767877 0.000000 0.000000 11.653817 0.000000 0.000000 -5.885947 0.000000 0.000000 -0.000000 0.000000 0.000000 -0.000000 0.000000 0.000000 12.528835 0.000000 0.000000 0.711642 0.000000 0.000000 -0.000000 0.000000 0.000000 0.000000 -90.000000 0.000000 -2.309062 0.000000 0.000000 2.309062 0.000000 0.000000 -0.000000 0.000000 0.000000 -0.000000 90.000000 0.000000 -2.309062 0.000000 0.000000 2.309062 0.000000 0.000000 8.520406 0.000000 0.000000 1.905762 0.000000 -0.000000 -4.658285 0.000000 0.000000 -0.000000 0.000000 0.000000 8.520406 0.000000 0.000000 1.905762 0.000000 -0.000000 -4.658285 0.000000 0.000000 -0.000000 0.000000
100.792797 126.677971 130.136261 170.668890 -23.000873 -3.057690 -0.453050 13.759190 4.276854 -0.080795 1.205428 0.377915 -0.131933 2.036800 0.637740 -0.445942 12.363728 3.841194 0.371912 21.231909 -2.132481 0.893713 -3.089822 -2.371573 1.872983 5.095264 -4.273718 4.841600 -0.659309 -3.831027 -79.605129 -54.866213 116.593683 -23.087513 -13.241857 -35.282929 -0.342589 7.912193 -0.003972 10.089859 1.108478 -5.607867 79.584683 -57.880317 -119.290543 24.944046 -5.985756 42.745582 8.517148 -55.642129 -9.642702 -132.064599 71.196964 -125.070979 1.510298 -4.974983 -15.398398 -0.000645 -0.006207 -0.000293 -19.565018 -60.071662 3.837764 56.352073 82.736253 50.959922 -3.455780 -18.566966 -0.990111 -0.000481 0.003254 -0.000218
100.793218 126.677813 130.135944 170.671380 -22.999710 -3.059033 -0.448461 13.764824 4.279535 -0.072191 1.215503 0.376328 -0.139087 2.028515 0.639202 -0.450033 12.357832 3.840938 0.380359 21.234558 -2.137284 0.895047 -3.098665 -2.373426 1.889862 5.082992 -4.274653 4.862305 -0.658593 -3.832489 -79.609183 -54.857689 116.578839 -23.108296 -13.221660 -35.253818 -0.336523 7.911115 -0.003529 10.086441 1.109980 -5.607516 79.629711 -57.882501 -119.308480 24.938387 -5.979804 42.732158 8.521578 -55.644651 -9.639399 -132.071306 71.189061 -125.074557 1.499944 -4.981065 -15.394242 0.001365 -0.006891 0.000620 -19.579915 -60.075281 3.843733 56.423605 82.735254 51.033297 -3.444827 -18.563701 -0.996492 0.000818 0.003460 0.000372
100.793088 126.677544 130.135571 170.673029 -22.997258 -3.056807 -0.434010 13.778016 4.276975 -0.079164 1.207944 0.377890 -0.132131 2.038927 0.638517 -0.450844 12.354984 3.842073 0.387064 21.229218 -2.141865 0.887323 -3.116269 -2.366194 1.888822 5.060378 -4.271675 4.934727 -0.670116 -3.840344 -79.642083 -54.842776 116.548698 -23.130777 -13.200751 -35.227663 -0.329694 7.900095 -0.000145 10.080252 1.114643 -5.609211 79.693682 -57.898101 -119.333440 24.947890 -5.967009 42.713392 8.520905 -55.646840 -9.638803 -132.075437 71.188090 -125.085295 1.496733 -4.984937 -15.385018 -0.001002 -0.005803 -0.000455 -19.581451 -60.079654 3.840596 56.463577 82.735885 51.075573 -3.440235 -18.565510 -1.000312 0.001778 0.003941 0.000807
100.793217 126.677126 130.135514 170.671811 -22.992238 -3.055105 -0.424824 13.780158 4.274796 -0.078346 1.208390 0.377775 -0.138613 2.033389 0.641367 -0.438431 12.368015 3.839783 0.382933 21.216344 -2.141351 0.880821 -3.133580 -2.363778 1.887623 5.038884 -4.269592 4.943657 -0.668547 -3.838520 -79.599954 -54.833651 116.562011 -23.121091 -13.222923 -35.246891 -0.326778 7.898970 0.006692 10.084091 1.107548 -5.612685 79.702234 -57.906658 -119.334854 24.942611 -5.967892 42.716367 8.520744 -55.650941 -9.635770 -132.056871 71.183018 -125.069648 1.503446 -4.984678 -15.383389 -0.000541 -0.005363 -0.000246 -19.587793 -60.088421 3.844205 56.534726 82.737473 51.149840 -3.454029 -18.565800 -1.005568 -0.000004 0.004190 -0.000002
100.794330 126.677123 130.134651 170.665668 -22.992191 -3.056111 -0.412066 13.786231 4.276755 -0.079550 1.205384 0.378977 -0.131148 2.038249 0.639640 -0.428527 12.369921 3.839284 0.370664 21.207562 -2.137986 0.873831 -3.141131 -2.358088 1.919685 5.004624 -4.275422 4.942069 -0.647468 -3.824976 -79.633692 -54.824563 116.556654 -23.127014 -13.215434 -35.237868 -0.339738 7.895250 0.020040 10.093670 1.110985 -5.614376 79.708364 -57.909514 -119.334715 24.939619 -5.957219 42.711187 8.516991 -55.649335 -9.625987 -132.051257 71.180862 -125.062772 1.509273 -4.988191 -15.386274 -0.000874 -0.004398 -0.000397 -19.592626 -60.090534 3.855223 56.685292 82.741583 51.302879 -3.468218 -18.582579 -1.011705 0.001031 0.004372 0.000468
100.794776 126.676727 130.134482 170.658495 -22.986358 -3.053602 -0.403766 13.783080 4.276257 -0.077626 1.205807 0.378268 -0.124952 2.045414 0.636196 -0.409503 12.375468 3.835512 0.352365 21.192570 -2.126519 0.864466 -3.147197 -2.354158 1.919042 4.968918 -4.269299 4.964190 -0.635124 -3.821941 -79.633238 -54.809886 116.552411 -23.118098 -13.231907 -35.249140 -0.355536 7.879839 0.039023 10.097630 1.114051 -5.607556 79.700684 -57.905160 -119.320268 24.934087 -5.961362 42.758291 8.509385 -55.655479 -9.619117 -132.050793 71.181767 -125.062183 1.514033 -4.989706 -15.394576 -0.000249 -0.004648 -0.000113 -19.590404 -60.096988 3.860038 56.738383 82.745013 51.356119 -3.471846 -18.597650 -1.013067 0.000820 0.005339 0.000372
100.795479 126.676207 130.134669 170.654421 -22.977777 -3.053768 -0.399703 13.777193 4.277434 -0.076469 1.208905 0.377459 -0.124745 2.042762 0.636943 -0.398429 12.377516 3.832906 0.342851 21.189124 -2.124354 0.851675 -3.152253 -2.350254 1.919337 4.953088 -4.267764 4.985334 -0.633356 -3.825062 -79.589555 -54.804822 116.568929 -23.113872 -13.278773 -35.284081 -0.356836 7.875698 0.047964 10.103220 1.116278 -5.593025 79.677807 -57.895212 -119.297843 24.936484 -5.962524 42.771767 8.490789 -55.662990 -9.603852 -132.052819 71.188003 -125.066378 1.508711 -4.989125 -15.393967 0.001389 -0.002840 0.000631 -19.587461 -60.103058 3.864618 56.738587 82.750653 51.358289 -3.485929 -18.639858 -1.014251 -0.002039 0.002974 -0.000926
100.796848 126.675899 130.134540 170.651706 -22.971268 -3.057383 -0.391680 13.778475 4.280693 -0.071860 1.214605 0.374350 -0.121999 2.041111 0.636222 -0.394656 12.369083 3.836386 0.331864 21.185769 -2.120672 0.846297 -3.154526 -2.346562 1.918310 4.938138 -4.265678 4.996871 -0.629964 -3.825790 -79.572177 -54.801504 116.569422 -23.144819 -13.262958 -35.242628 -0.362348 7.872294 0.055011 10.111303 1.115461 -5.573201 79.641121 -57.882652 -119.261763 24.939092 -5.963375 42.784694 8.468921 -55.666306 -9.586375 -132.040640 71.191823 -125.048245 1.511960 -4.988973 -15.408526 0.006484 -0.002728 0.002944 -19.585378 -60.105713 3.872864 56.686506 82.763551 51.305019 -3.477709 -18.670098 -1.009471 -0.003135 0.003801 -0.001423
100.797761 126.675654 130.134127 170.648416 -22.965802 -3.057468 -0.385673 13.779995 4.279480 -0.067932 1.212220 0.375732 -0.120782 2.040573 0.635853 -0.387588 12.367755 3.835260 0.320826 21.182012 -2.114554 0.839051 -3.156688 -2.344689 1.953576 4.903171 -4.282828 4.958099 -0.600700 -3.797030 -79.560660 -54.801488 116.570704 -23.157315 -13.250360 -35.217749 -0.372085 7.868860 0.061534 10.134894 1.114343 -5.523742 79.600064 -57.840027 -119.238335 24.940101 -5.966255 42.785380 8.453618 -55.671255 -9.576235 -132.038974 71.192107 -125.044731 1.512823 -4.989073 -15.416995 0.008718 -0.002981 0.003958 -19.586375 -60.109818 3.879942 56.661202 82.775729 51.273209 -3.461323 -18.699945 -1.005239 -0.004903 0.003077 -0.002226
100.797162 126.674991 130.134272 170.647592 -22.955277 -3.050218 -0.381102 13.773354 4.273225 -0.066132 1.212719 0.374209 -0.119865 2.040037 0.635276 -0.388141 12.364729 3.836458 0.312995 21.178894 -2.115499 0.823651 -3.162309 -2.339671 1.958610 4.893142 -4.286006 4.977486 -0.603387 -3.796702 -79.557851 -54.794862 116.557447 -23.165695 -13.237989 -35.194851 -0.378041 7.867934 0.064252 10.147160 1.111564 -5.495015 79.582731 -57.814221 -119.230754 24.945891 -5.955424 42.828614 8.456457 -55.679850 -9.600164 -132.068041 71.201029 -125.069473 1.515185 -4.988788 -15.422559 0.004950 -0.002361 0.002247 -19.572552 -60.122470 3.868666 56.661281 82.786405 51.269058 -3.439827 -18.728446 -1.001492 -0.005209 0.001600 -0.002365
100.798499 126.674913 130.133563 170.647068 -22.952018 -3.052562 -0.367039 13.778887 4.275096 -0.070581 1.208637 0.375997 -0.121889 2.038037 0.634892 -0.386323 12.362528 3.836628 0.297212 21.173285 -2.121225 0.812038 -3.168604 -2.329080 1.964720 4.882201 -4.289710 5.016881 -0.623275 -3.814623 -79.539899 -54.771605 116.525509 -23.169980 -13.240398 -35.186153 -0.389534 7.864004 0.069081 10.162697 1.113117 -5.466678 79.540257 -57.793454 -119.196259 24.947564 -5.954617 42.853410 8.452773 -55.682850 -9.599760 -132.080655 71.200271 -125.072387 1.513304 -4.989291 -15.431320 0.007909 -0.004059 0.003591 -19.551518 -60.122840 3.861047 56.630754 82.799749 51.241453 -3.422611 -18.758687 -0.998816 -0.003689 0.001871 -0.001675
